<svg width="105.615234" height="56.695312" viewBox="0 0 105.615 56.6953" fill="none" xmlns="http://www.w3.org/2000/svg" xmlns:xlink="http://www.w3.org/1999/xlink">
	<desc>
			Created with Pixso.
	</desc>
	<defs>
		<filter id="filter_119_187_dd" x="0.000000" y="0.000000" width="105.615234" height="56.695312" filterUnits="userSpaceOnUse" color-interpolation-filters="sRGB">
			<feFlood flood-opacity="0" result="BackgroundImageFix"/>
			<feColorMatrix in="SourceAlpha" type="matrix" values="0 0 0 0 0 0 0 0 0 0 0 0 0 0 0 0 0 0 127 0" result="hardAlpha"/>
			<feOffset dx="0" dy="4"/>
			<feGaussianBlur stdDeviation="1.33333"/>
			<feComposite in2="hardAlpha" operator="out" k2="-1" k3="1"/>
			<feColorMatrix type="matrix" values="0 0 0 0 0 0 0 0 0 0 0 0 0 0 0 0 0 0 0.25 0"/>
			<feBlend mode="normal" in2="BackgroundImageFix" result="effect_dropShadow_1"/>
			<feBlend mode="normal" in="SourceGraphic" in2="effect_dropShadow_1" result="shape"/>
		</filter>
	</defs>
	<g filter="url(#filter_119_187_dd)">
		<path id="logo" d="M17.33 5.6L15.29 5.6C15.08 3.88 13.48 2.87 11.37 2.87C9.05 2.87 7.51 4.1 7.51 5.77C7.51 7.65 9.59 8.33 10.89 8.66L12.66 9.15C14.47 9.62 17.58 10.68 17.58 13.95C17.58 16.78 15.29 19 11.26 19C7.51 19 5.2 17.06 5 14.19L7.17 14.19C7.34 16.16 9.18 17.09 11.26 17.09C13.68 17.09 15.53 15.83 15.53 13.91C15.53 12.18 13.89 11.53 12.05 11.02L9.91 10.41C7.17 9.62 5.47 8.23 5.47 5.87C5.47 2.94 8.09 1 11.43 1C14.81 1 17.24 2.96 17.33 5.6ZM45.83 1C50.3 1 53.54 4.44 53.54 9.97C53.54 15.49 50.3 18.93 45.83 18.93C41.37 18.93 38.13 15.49 38.13 9.97C38.13 4.44 41.37 1 45.83 1ZM23.16 18.69L21.05 18.69L21.05 1.24L23.16 1.24L23.16 9.01L32.47 9.01L32.47 1.24L34.59 1.24L34.59 18.69L32.47 18.69L32.47 10.89L23.16 10.89L23.16 18.69ZM59.2 18.69L57.09 18.69L57.09 1.24L62.98 1.24C67.08 1.24 68.92 3.67 68.92 6.76C68.92 9.84 67.08 12.32 63.02 12.32L59.2 12.32L59.2 18.69ZM45.83 16.95C49 16.95 51.49 14.5 51.49 9.97C51.49 5.43 49 2.98 45.83 2.98C42.66 2.98 40.17 5.43 40.17 9.97C40.17 14.5 42.66 16.95 45.83 16.95ZM59.2 3.11L59.2 10.44L62.95 10.44C65.75 10.44 66.84 8.85 66.84 6.76C66.84 4.66 65.75 3.11 62.92 3.11L59.2 3.11ZM12.61 47.69L5.15 47.69L5.15 30.24L12.14 30.24C15.99 30.24 17.93 32.09 17.93 34.71C17.93 36.76 16.59 38.05 14.78 38.46L14.78 38.63C16.76 38.73 18.61 40.28 18.61 42.87C18.61 45.65 16.53 47.69 12.61 47.69ZM25.31 43.71L24.01 47.69L20.06 47.69L26.09 30.24L30.84 30.24L36.86 47.69L32.9 47.69L31.61 43.71L25.31 43.71ZM42.65 47.69L38.96 47.69L38.96 30.24L42.65 30.24L42.65 37.93L42.88 37.93L49.16 30.24L53.58 30.24L47.1 38.05L53.66 47.69L49.25 47.69L44.46 40.51L42.65 42.73L42.65 47.69ZM67.3 47.69L55.51 47.69L55.51 30.24L67.27 30.24L67.27 33.28L59.2 33.28L59.2 37.44L66.66 37.44L66.66 40.48L59.2 40.48L59.2 44.65L67.3 44.65L67.3 47.69ZM73.9 47.69L70.21 47.69L70.21 30.24L77.09 30.24C81.06 30.24 83.35 32.47 83.35 35.94C83.35 38.32 82.25 40.06 80.26 40.91L83.97 47.69L79.9 47.69L76.59 41.5L73.9 41.5L73.9 47.69ZM90.58 41.52L84.21 30.24L88.35 30.24L92.33 37.75L92.5 37.75L96.47 30.24L100.61 30.24L94.24 41.52L94.24 47.69L90.58 47.69L90.58 41.52ZM8.84 33.22L8.84 37.54L11.58 37.54C13.08 37.54 14.21 36.7 14.21 35.32C14.21 34.06 13.28 33.22 11.64 33.22L8.84 33.22ZM73.9 33.25L73.9 38.54L76.4 38.54C78.52 38.54 79.55 37.66 79.55 35.94C79.55 34.2 78.52 33.25 76.39 33.25L73.9 33.25ZM28.4 34.23L26.25 40.83L30.68 40.83L28.53 34.23L28.4 34.23ZM8.84 40.04L8.84 44.67L11.84 44.67C13.91 44.67 14.8 43.81 14.8 42.5C14.8 41.06 13.7 40.04 11.93 40.04L8.84 40.04Z" fill="#FAF4EA" fill-opacity="1.000000" fill-rule="evenodd"/>
		<path id="logo" d="M15.29 5.6L17.33 5.6C17.24 2.96 14.81 1 11.43 1C8.09 1 5.47 2.94 5.47 5.87C5.47 8.23 7.17 9.62 9.91 10.41L12.05 11.02C13.89 11.53 15.53 12.18 15.53 13.91C15.53 15.83 13.68 17.09 11.26 17.09C9.18 17.09 7.34 16.16 7.17 14.19L5 14.19C5.2 17.06 7.51 19 11.26 19C15.29 19 17.58 16.78 17.58 13.95C17.58 10.68 14.47 9.62 12.66 9.15L10.89 8.66C9.59 8.33 7.51 7.65 7.51 5.77C7.51 4.1 9.05 2.87 11.37 2.87C13.48 2.87 15.08 3.88 15.29 5.6ZM21.05 18.69L23.16 18.69L23.16 10.89L32.47 10.89L32.47 18.69L34.59 18.69L34.59 1.24L32.47 1.24L32.47 9.01L23.16 9.01L23.16 1.24L21.05 1.24L21.05 18.69ZM53.54 9.97C53.54 4.44 50.3 1 45.83 1C41.37 1 38.13 4.44 38.13 9.97C38.13 15.49 41.37 18.93 45.83 18.93C50.3 18.93 53.54 15.49 53.54 9.97ZM51.49 9.97C51.49 14.5 49 16.95 45.83 16.95C42.66 16.95 40.17 14.5 40.17 9.97C40.17 5.43 42.66 2.98 45.83 2.98C49 2.98 51.49 5.43 51.49 9.97ZM57.09 18.69L59.2 18.69L59.2 12.32L63.02 12.32C67.08 12.32 68.92 9.84 68.92 6.76C68.92 3.67 67.08 1.24 62.98 1.24L57.09 1.24L57.09 18.69ZM59.2 10.44L59.2 3.11L62.92 3.11C65.75 3.11 66.84 4.66 66.84 6.76C66.84 8.85 65.75 10.44 62.95 10.44L59.2 10.44ZM5.15 47.69L12.61 47.69C16.53 47.69 18.61 45.65 18.61 42.87C18.61 40.28 16.76 38.73 14.78 38.63L14.78 38.46C16.59 38.05 17.93 36.76 17.93 34.71C17.93 32.09 15.99 30.24 12.14 30.24L5.15 30.24L5.15 47.69ZM8.84 44.67L8.84 40.04L11.93 40.04C13.7 40.04 14.8 41.06 14.8 42.5C14.8 43.81 13.91 44.67 11.84 44.67L8.84 44.67ZM8.84 37.54L8.84 33.22L11.64 33.22C13.28 33.22 14.21 34.06 14.21 35.32C14.21 36.7 13.08 37.54 11.58 37.54L8.84 37.54ZM24.01 47.69L25.31 43.71L31.61 43.71L32.9 47.69L36.86 47.69L30.84 30.24L26.09 30.24L20.06 47.69L24.01 47.69ZM26.25 40.83L28.4 34.23L28.53 34.23L30.68 40.83L26.25 40.83ZM38.96 47.69L42.65 47.69L42.65 42.73L44.46 40.51L49.25 47.69L53.66 47.69L47.1 38.05L53.58 30.24L49.16 30.24L42.88 37.93L42.65 37.93L42.65 30.24L38.96 30.24L38.96 47.69ZM55.51 47.69L67.3 47.69L67.3 44.65L59.2 44.65L59.2 40.48L66.66 40.48L66.66 37.44L59.2 37.44L59.2 33.28L67.27 33.28L67.27 30.24L55.51 30.24L55.51 47.69ZM70.21 47.69L73.9 47.69L73.9 41.5L76.59 41.5L79.9 47.69L83.97 47.69L80.26 40.91C82.25 40.06 83.35 38.32 83.35 35.94C83.35 32.47 81.06 30.24 77.09 30.24L70.21 30.24L70.21 47.69ZM73.9 38.54L73.9 33.25L76.39 33.25C78.52 33.25 79.55 34.2 79.55 35.94C79.55 37.66 78.52 38.54 76.4 38.54L73.9 38.54ZM84.21 30.24L90.58 41.52L90.58 47.69L94.24 47.69L94.24 41.52L100.61 30.24L96.47 30.24L92.5 37.75L92.33 37.75L88.35 30.24L84.21 30.24Z" stroke="#000000" stroke-opacity="1.000000" stroke-width="1.000000"/>
	</g>
</svg>
